<svg xmlns="http://www.w3.org/2000/svg" style="width:0; height:0; visibility:hidden;">
    <symbol id="browser" viewBox="0 0 24 24">
       <path fill="#444444" d="M0 1v22h24v-22h-24zM22 21h-20v-13h20v13zM22 7h-20v-4h20v4zM11 4h-2v2h2v-2zM8 4h-2v2h2v-2zM5 4h-2v2h2v-2z"/> 
    </symbol>
    <symbol id="share" viewBox="0 0 24 24">
       <path fill="#444444" d="M20 16c-1.2 0-2.266 0.542-3 1.382l-7.324-3.662c0.199-0.538 0.324-1.113 0.324-1.72s-0.125-1.182-0.324-1.72l7.324-3.662c0.734 0.84 1.8 1.382 3 1.382 2.206 0 4-1.795 4-4s-1.794-4-4-4-4 1.795-4 4c0 0.287 0.033 0.566 0.091 0.836l-7.47 3.735c0.003 0.003 0.004 0.007 0.007 0.009-0.912-0.967-2.196-1.58-3.628-1.58-2.757 0-5 2.243-5 5s2.243 5 5 5c1.432 0 2.716-0.613 3.628-1.58-0.003 0.002-0.004 0.006-0.007 0.009l7.47 3.735c-0.058 0.27-0.091 0.549-0.091 0.836 0 2.205 1.794 4 4 4s4-1.795 4-4-1.794-4-4-4zM20 2c1.103 0 2 0.896 2 2s-0.897 2-2 2-2-0.896-2-2 0.897-2 2-2zM5 15c-1.654 0-3-1.346-3-3s1.346-3 3-3 3 1.346 3 3-1.346 3-3 3zM20 22c-1.103 0-2-0.896-2-2s0.897-2 2-2 2 0.896 2 2-0.897 2-2 2z"/> 
    </symbol>
    <symbol id="tools" viewBox="0 0 20 20">
       <path fill="#444444" d="M3.135 6.89c0.933-0.725 1.707-0.225 2.74 0.971 0.116 0.135 0.272-0.023 0.361-0.1 0.088-0.078 1.451-1.305 1.518-1.361 0.066-0.059 0.146-0.169 0.041-0.292-0.107-0.123-0.494-0.625-0.743-0.951-1.808-2.365 4.946-3.969 3.909-3.994-0.528-0.014-2.646-0.039-2.963-0.004-1.283 0.135-2.894 1.334-3.705 1.893-1.061 0.726-1.457 1.152-1.522 1.211-0.3 0.262-0.048 0.867-0.592 1.344-0.575 0.503-0.934 0.122-1.267 0.414-0.165 0.146-0.627 0.492-0.759 0.607-0.133 0.117-0.157 0.314-0.021 0.471 0 0 1.264 1.396 1.37 1.52 0.105 0.122 0.391 0.228 0.567 0.071 0.177-0.156 0.632-0.553 0.708-0.623 0.078-0.066-0.050-0.861 0.358-1.177zM8.843 7.407c-0.12-0.139-0.269-0.143-0.397-0.029l-1.434 1.252c-0.113 0.1-0.129 0.283-0.027 0.4l8.294 9.439c0.194 0.223 0.53 0.246 0.751 0.053l0.97-0.813c0.222-0.195 0.245-0.533 0.052-0.758l-8.209-9.544zM19.902 3.39c-0.074-0.494-0.33-0.391-0.463-0.182-0.133 0.211-0.721 1.102-0.963 1.506-0.24 0.4-0.832 1.191-1.934 0.41-1.148-0.811-0.749-1.377-0.549-1.758 0.201-0.383 0.818-1.457 0.907-1.59 0.089-0.135-0.015-0.527-0.371-0.363s-2.523 1.025-2.823 2.26c-0.307 1.256 0.257 2.379-0.85 3.494l-1.343 1.4 1.349 1.566 1.654-1.57c0.394-0.396 1.236-0.781 1.998-0.607 1.633 0.369 2.524-0.244 3.061-1.258 0.482-0.906 0.402-2.814 0.327-3.308zM2.739 17.053c-0.208 0.209-0.208 0.549 0 0.758l0.951 0.93c0.208 0.209 0.538 0.121 0.746-0.088l4.907-4.824-1.503-1.714-5.101 4.938z"/> 
    </symbol>
    <symbol id="twitter" viewBox="0 0 26 28">
       <path fill="#444444" d="M25.312 6.375q-1.047 1.531-2.531 2.609 0.016 0.219 0.016 0.656 0 2.031-0.594 4.055t-1.805 3.883-2.883 3.289-4.031 2.281-5.047 0.852q-4.234 0-7.75-2.266 0.547 0.063 1.219 0.063 3.516 0 6.266-2.156-1.641-0.031-2.938-1.008t-1.781-2.492q0.516 0.078 0.953 0.078 0.672 0 1.328-0.172-1.75-0.359-2.898-1.742t-1.148-3.211v-0.063q1.062 0.594 2.281 0.641-1.031-0.688-1.641-1.797t-0.609-2.406q0-1.375 0.688-2.547 1.891 2.328 4.602 3.727t5.805 1.555q-0.125-0.594-0.125-1.156 0-2.094 1.477-3.57t3.57-1.477q2.188 0 3.687 1.594 1.703-0.328 3.203-1.219-0.578 1.797-2.219 2.781 1.453-0.156 2.906-0.781z"/> 
    </symbol></svg>